# xmcd
#
# Track frame offsets:
#	150
#	6915
#	29215
#	51542
#	67050
#	83003
#	105864
#	126660
#	143547
#	163073
#	183102
#	200658
#	219008
#	232705
#	253235
#	272958
#	288688
#
# Disc length: 4111
#
# Revision: 2
# Processed by: cddbd v1.5.1PL0 Copyright (c) Steve Scherf et al.
# Submitted via: EasyCDDAExtractor 6.2.0.3
# Normalized: r1:DSETVAR1
#
DISCID=00100d11
DTITLE=Various Artist - Funky Joint
DYEAR=1998
DGENRE=R&B
TTITLE0=Intro - Intro
TTITLE1=R. Kelly - Home alone
TTITLE2=Big Punisher and Beenie Man - Makes me sweat
TTITLE3=W. Houston and Missy Elliott - In my business
TTITLE4=Dru Hill - Real freak
TTITLE5=T.Q - West side
TTITLE6=Total Ft Mase - If you want me
TTITLE7=Ginuwine - Keep it real
TTITLE8=Timbaland ft Missy Elliott - Here we come
TTITLE9=Aaliyah - Are you that somebody
TTITLE10=Deborah Cox - Just when I think
TTITLE11=J'son - Cheat on you
TTITLE12=Keith Murray - Incredible
TTITLE13=Faith Evans - Love like this
TTITLE14=Tyrese ft Peter Gunz - Do you need
TTITLE15=Xscape - My little secret (remix)
TTITLE16=Bell Biv Devoe - Poison
EXTD=
EXTT0=
EXTT1=
EXTT2=
EXTT3=
EXTT4=
EXTT5=
EXTT6=
EXTT7=
EXTT8=
EXTT9=
EXTT10=
EXTT11=
EXTT12=
EXTT13=
EXTT14=
EXTT15=
EXTT16=
PLAYORDER=
